# xmcd
#
# Track frame offsets:
#	150
#	16495
#	27195
#	38474
#	49519
#	62859
#	75351
#	84786
#	102818
#	117429
#	133857
#	150029
#	163046
#	174766
#
# Disc length: 2537 seconds
#
# Revision: 0
# Processed by: cddbd v1.5.2PL0 Copyright (c) Steve Scherf et al.
# Submitted via: EasyCDDAExtractor 2010.6.0.0
#
DISCID=9109e70e
DTITLE=Various Artist - A Forca Do Amor
DYEAR=2005
DGENRE=Gospel
TTITLE0=Jose Rios - Jovem
TTITLE1=Jose Rios - Prefiro Cristo
TTITLE2=Jose Rios - Lar No Ceu
TTITLE3=Jose Rios - Levando A Cruz
TTITLE4=Jose Rios (Part. Esp. Luiz Marcelo) - Convite De Amor
TTITLE5=Jose Rios - Vejo Alem
TTITLE6=Jose Rios - Chamada Final
TTITLE7=Jose Rios - Foi, Foi, Foi
TTITLE8=Jose Rios - A Forca Do Amor
TTITLE9=Jose Rios - Deus Pode Fazer
TTITLE10=Jose Rios - As Drogas Matam
TTITLE11=Jose Rios - Vitoria
TTITLE12=Jose Rios - Pense Pra Falar
TTITLE13=Jose Rios - A Vida
EXTD=
EXTT0=
EXTT1=
EXTT2=
EXTT3=
EXTT4=
EXTT5=
EXTT6=
EXTT7=
EXTT8=
EXTT9=
EXTT10=
EXTT11=
EXTT12=
EXTT13=
PLAYORDER=
